<svg width="116" height="58" viewBox="0 0 116 58" fill="none" xmlns="http://www.w3.org/2000/svg">
<g filter="url(#filter0_d)">
<g clip-path="url(#clip0)">
<path d="M26.0976 6L43 15.0431L42.9106 32.8267L26.2764 43.098L23.7187 41.5315V34.856L26.2943 35.9775L36.078 30.4413L36.0244 19.0484L26.4016 13.8682L16.9577 19.2264L16.9041 37.1702L10 32.7376V14.9185L26.0976 6Z" fill="white"/>
<path d="M26.4195 21.0955L29.7285 22.8579L29.7106 26.3291L26.4553 28.3407L23.2537 26.3113V22.8401L26.4195 21.0955Z" fill="white"/>
</g>
</g>
<path d="M53.0504 17.9437H53.6034C54.2159 17.9437 54.5222 17.6771 54.5222 17.144C54.5222 16.6108 54.2159 16.3442 53.6034 16.3442H53.0504V17.9437ZM53.0504 21.4149H51.3828V15H54.0373C54.7576 15 55.3078 15.1872 55.6878 15.5615C56.0735 15.9359 56.2663 16.4634 56.2663 17.144C56.2663 17.8246 56.0735 18.3521 55.6878 18.7264C55.3078 19.1008 54.7576 19.288 54.0373 19.288H53.0504V21.4149Z" fill="white"/>
<path d="M60.2798 19.0327L59.5312 16.8973L58.7825 19.0327H60.2798ZM60.7223 20.3004H58.3401L57.9572 21.4149H56.1791L58.6208 15H60.4415L62.8833 21.4149H61.1051L60.7223 20.3004Z" fill="white"/>
<path d="M65.2804 17.9437H65.8334C66.446 17.9437 66.7523 17.6771 66.7523 17.144C66.7523 16.6108 66.446 16.3442 65.8334 16.3442H65.2804V17.9437ZM65.2804 21.4149H63.6129V15H66.2673C66.9877 15 67.5378 15.1872 67.9179 15.5615C68.3035 15.9359 68.4964 16.4634 68.4964 17.144C68.4964 17.8246 68.3035 18.3521 67.9179 18.7264C67.5378 19.1008 66.9877 19.288 66.2673 19.288H65.2804V21.4149Z" fill="white"/>
<path d="M72.5099 19.0327L71.7612 16.8973L71.0125 19.0327H72.5099ZM72.9523 20.3004H70.5701L70.1873 21.4149H68.4091L70.8509 15H72.6716L75.1133 21.4149H73.3352L72.9523 20.3004Z" fill="white"/>
<path d="M75.8429 21.4149V15H77.5105L80.5903 18.9221V15H82.2493V21.4149H80.5903L77.5105 17.4928V21.4149H75.8429Z" fill="white"/>
<path d="M85.2623 20.0026H85.6451C85.9344 20.0026 86.1925 19.9573 86.4193 19.8665C86.6462 19.7757 86.8362 19.651 86.9894 19.4922C87.1482 19.3333 87.2673 19.1462 87.3467 18.9306C87.4318 18.7094 87.4743 18.4684 87.4743 18.2075C87.4743 17.9522 87.4318 17.714 87.3467 17.4928C87.2616 17.2716 87.1397 17.0816 86.9809 16.9228C86.8277 16.764 86.6377 16.6392 86.4108 16.5484C86.1839 16.4577 85.9287 16.4123 85.6451 16.4123H85.2623V20.0026ZM83.5947 15H86.062C86.4987 15 86.9071 15.0879 87.2871 15.2637C87.6728 15.4396 88.0075 15.675 88.2911 15.9699C88.5803 16.2592 88.8072 16.5995 88.9717 16.9908C89.1362 17.3765 89.2184 17.7821 89.2184 18.2075C89.2184 18.6272 89.1362 19.0327 88.9717 19.4241C88.8129 19.8098 88.5888 20.1501 88.2996 20.445C88.016 20.74 87.6813 20.9754 87.2956 21.1512C86.9156 21.327 86.5044 21.4149 86.062 21.4149H83.5947V15Z" fill="white"/>
<path d="M93.4971 19.0327L92.7484 16.8973L91.9997 19.0327H93.4971ZM93.9395 20.3004H91.5573L91.1744 21.4149H89.3963L91.8381 15H93.6587L96.1005 21.4149H94.3223L93.9395 20.3004Z" fill="white"/>
<path d="M97.772 18.3351L95.4324 15H97.4232L98.6143 16.7526L99.7969 15H101.788L99.4396 18.3351V21.4149H97.772V18.3351Z" fill="white"/>
<path d="M105.204 19.0327L104.455 16.8973L103.706 19.0327H105.204ZM105.646 20.3004H103.264L102.881 21.4149H101.103L103.545 15H105.365L107.807 21.4149H106.029L105.646 20.3004Z" fill="white"/>
<path d="M108.537 21.4149V15H110.204L113.284 18.9221V15H114.943V21.4149H113.284L110.204 17.4928V21.4149H108.537Z" fill="white"/>
<path d="M58.0363 28.6222C57.4835 27.9475 56.8006 27.6101 55.9876 27.6101C55.6299 27.6101 55.2966 27.6751 54.9876 27.8052C54.6868 27.9353 54.4267 28.1141 54.2072 28.3417C53.9877 28.5612 53.8129 28.8255 53.6828 29.1344C53.5609 29.4433 53.4999 29.7766 53.4999 30.1343C53.4999 30.5002 53.5609 30.8376 53.6828 31.1465C53.8129 31.4554 53.9877 31.7237 54.2072 31.9513C54.4348 32.179 54.699 32.3578 54.9998 32.4879C55.3006 32.618 55.6258 32.683 55.9754 32.683C56.7396 32.683 57.4266 32.3578 58.0363 31.7075V34.5366L57.7924 34.622C57.4266 34.752 57.0851 34.8455 56.7681 34.9024C56.451 34.9675 56.138 35 55.8291 35C55.1949 35 54.5852 34.8821 53.9999 34.6464C53.4227 34.4025 52.9105 34.0651 52.4634 33.6342C52.0243 33.1952 51.6707 32.679 51.4024 32.0855C51.1341 31.4839 51 30.8294 51 30.1222C51 29.4149 51.1301 28.7686 51.3902 28.1832C51.6585 27.5897 52.0122 27.0816 52.4512 26.6589C52.8983 26.228 53.4145 25.8947 53.9999 25.6589C54.5852 25.415 55.199 25.2931 55.8413 25.2931C56.2071 25.2931 56.5648 25.3337 56.9144 25.415C57.2721 25.4882 57.6461 25.6061 58.0363 25.7687V28.6222Z" fill="white"/>
<path d="M68.6924 31.3294L67.6193 28.2686L66.5461 31.3294H68.6924ZM69.3265 33.1464H65.912L65.3633 34.7439H62.8146L66.3144 25.5492H68.9241L72.4239 34.7439H69.8753L69.3265 33.1464Z" fill="white"/>
<path d="M80.0041 29.6588H80.4553C80.9268 29.6588 81.2886 29.5612 81.5406 29.3661C81.7927 29.171 81.9187 28.8905 81.9187 28.5247C81.9187 28.1588 81.7927 27.8783 81.5406 27.6832C81.2886 27.4881 80.9268 27.3906 80.4553 27.3906H80.0041V29.6588ZM85.26 34.7439H82.2845L80.0041 31.2075V34.7439H77.614V25.5492H81.3333C81.8455 25.5492 82.2926 25.6264 82.6747 25.7809C83.0568 25.9272 83.3698 26.1305 83.6137 26.3906C83.8657 26.6508 84.0527 26.9516 84.1747 27.293C84.3048 27.6345 84.3698 28.0003 84.3698 28.3905C84.3698 29.0897 84.1991 29.6588 83.8576 30.0978C83.5243 30.5286 83.0284 30.8213 82.3699 30.9758L85.26 34.7439Z" fill="white"/>
<path d="M94.8794 29.5978H99.6231C99.6231 30.0856 99.6028 30.5286 99.5622 30.927C99.5215 31.3254 99.4402 31.6953 99.3183 32.0367C99.1476 32.5164 98.9159 32.9432 98.6232 33.3171C98.3305 33.683 97.985 33.9919 97.5867 34.2439C97.1964 34.4878 96.7655 34.6748 96.294 34.8049C95.8225 34.935 95.3266 35 94.8063 35C94.0909 35 93.4364 34.8821 92.8429 34.6464C92.2576 34.4106 91.7536 34.0813 91.3308 33.6586C90.9081 33.2277 90.5788 32.7155 90.3431 32.1221C90.1073 31.5205 89.9894 30.8579 89.9894 30.1343C89.9894 29.4189 90.1032 28.7645 90.3309 28.171C90.5666 27.5694 90.8959 27.0572 91.3186 26.6345C91.7495 26.2118 92.2657 25.8825 92.8673 25.6467C93.4689 25.411 94.1396 25.2931 94.8794 25.2931C95.8388 25.2931 96.6802 25.5004 97.4037 25.915C98.1273 26.3296 98.7004 26.9719 99.1232 27.8418L96.855 28.7807C96.6436 28.2767 96.3672 27.9149 96.0257 27.6954C95.6924 27.4759 95.3103 27.3662 94.8794 27.3662C94.5217 27.3662 94.1966 27.4353 93.9039 27.5735C93.6112 27.7036 93.3592 27.8946 93.1478 28.1466C92.9446 28.3905 92.782 28.6873 92.66 29.0368C92.5462 29.3864 92.4893 29.7766 92.4893 30.2075C92.4893 30.5977 92.5381 30.9595 92.6356 31.2928C92.7413 31.6262 92.8958 31.9148 93.099 32.1587C93.3023 32.4025 93.5543 32.5936 93.8551 32.7318C94.1559 32.8619 94.5055 32.9269 94.9038 32.9269C95.1396 32.9269 95.3672 32.9025 95.5867 32.8537C95.8062 32.7968 96.0014 32.7115 96.1721 32.5977C96.3509 32.4757 96.4973 32.3212 96.6111 32.1343C96.7249 31.9473 96.8021 31.7196 96.8428 31.4514H94.8794V29.5978Z" fill="white"/>
<path d="M107.363 30.1465C107.363 30.5124 107.432 30.8498 107.571 31.1587C107.709 31.4676 107.896 31.7359 108.132 31.9635C108.367 32.1912 108.64 32.37 108.949 32.5001C109.266 32.622 109.599 32.683 109.949 32.683C110.298 32.683 110.627 32.622 110.936 32.5001C111.253 32.37 111.53 32.1912 111.766 31.9635C112.01 31.7359 112.201 31.4676 112.339 31.1587C112.477 30.8498 112.546 30.5124 112.546 30.1465C112.546 29.7807 112.477 29.4433 112.339 29.1344C112.201 28.8255 112.01 28.5572 111.766 28.3295C111.53 28.1019 111.253 27.9271 110.936 27.8052C110.627 27.6751 110.298 27.6101 109.949 27.6101C109.599 27.6101 109.266 27.6751 108.949 27.8052C108.64 27.9271 108.367 28.1019 108.132 28.3295C107.896 28.5572 107.709 28.8255 107.571 29.1344C107.432 29.4433 107.363 29.7807 107.363 30.1465ZM104.863 30.1465C104.863 29.4636 104.99 28.8295 105.242 28.2442C105.494 27.6507 105.843 27.1345 106.29 26.6955C106.737 26.2565 107.27 25.915 107.888 25.6711C108.514 25.4191 109.201 25.2931 109.949 25.2931C110.688 25.2931 111.371 25.4191 111.997 25.6711C112.623 25.915 113.16 26.2565 113.607 26.6955C114.062 27.1345 114.416 27.6507 114.668 28.2442C114.92 28.8295 115.046 29.4636 115.046 30.1465C115.046 30.8294 114.92 31.4676 114.668 32.0611C114.416 32.6464 114.062 33.1586 113.607 33.5976C113.16 34.0366 112.623 34.3821 111.997 34.6342C111.371 34.8781 110.688 35 109.949 35C109.201 35 108.514 34.8781 107.888 34.6342C107.27 34.3821 106.737 34.0366 106.29 33.5976C105.843 33.1586 105.494 32.6464 105.242 32.0611C104.99 31.4676 104.863 30.8294 104.863 30.1465Z" fill="white"/>
<defs>
<filter id="filter0_d" x="0" y="0" width="53" height="57.098" filterUnits="userSpaceOnUse" color-interpolation-filters="sRGB">
<feFlood flood-opacity="0" result="BackgroundImageFix"/>
<feColorMatrix in="SourceAlpha" type="matrix" values="0 0 0 0 0 0 0 0 0 0 0 0 0 0 0 0 0 0 127 0"/>
<feOffset dy="4"/>
<feGaussianBlur stdDeviation="5"/>
<feColorMatrix type="matrix" values="0 0 0 0 0 0 0 0 0 0 0 0 0 0 0 0 0 0 0.2 0"/>
<feBlend mode="normal" in2="BackgroundImageFix" result="effect1_dropShadow"/>
<feBlend mode="normal" in="SourceGraphic" in2="effect1_dropShadow" result="shape"/>
</filter>
<clipPath id="clip0">
<rect width="33" height="37.098" fill="white" transform="translate(10 6)"/>
</clipPath>
</defs>
</svg>
